<?xml version="1.0" standalone="no"?><!DOCTYPE svg PUBLIC "-//W3C//DTD SVG 1.1//EN" "http://www.w3.org/Graphics/SVG/1.1/DTD/svg11.dtd"><svg t="1486620203214" class="icon" style="" viewBox="0 0 1024 1024" version="1.1" xmlns="http://www.w3.org/2000/svg" p-id="4164" xmlns:xlink="http://www.w3.org/1999/xlink" width="200" height="200"><defs><style type="text/css"></style></defs><path d="M607.99635 288.101627 607.99635 64.110133 192.012148 64.110133 192.012148 448.095551 831.987844 448.095551 831.987844 288.101627Z" p-id="4165"></path><path d="M831.987844 256.102842 639.995135 256.102842 639.995135 64.110133Z" p-id="4166"></path><path d="M493.497597 665.361877l-45.685505 0 0 82.184791 46.841841 0c24.260543 0 46.841841-14.34266 46.841841-40.685631l0-0.812505C541.495774 678.169577 518.941082 665.361877 493.497597 665.361877z" p-id="4167"></path><path d="M0.019439 511.742127l0 447.769117 1023.961114 0L1023.980553 511.742127 0.019439 511.742127zM317.163519 787.856745c0 100.649328-122.959449 128.255059-183.149297 56.435337l37.248346-41.435715c29.197996 32.04688 85.246523 40.546461 85.246523-17.686824L256.509091 611.989295l60.654428 0L317.163519 787.856745zM597.988416 705.672978c0 61.433164-51.749618 94.496188-108.683305 94.496188l-44.904723 0 0 80.622202-59.154261 0 0-268.802072 109.839641 0c55.519478 0 102.902648 34.264385 102.902648 92.933599L597.988416 705.672978zM895.468644 842.792938c-92.564185 78.742389-256.115122 41.478693-256.115122-95.621824l0-0.750083c0-127.21845 156.115594-179.413206 246.490927-102.183264l-37.248346 44.935422c-56.237839-47.321772-147.431817-26.278503-147.431817 56.622602l0 0.812505c0 70.580498 78.848813 110.969371 137.057539 69.184709l0-38.686091-59.498092 0 0-51.060933L895.468644 726.045981 895.468644 842.792938z" p-id="4168"></path></svg>