<?xml version="1.0" standalone="no"?><!DOCTYPE svg PUBLIC "-//W3C//DTD SVG 1.1//EN" "http://www.w3.org/Graphics/SVG/1.1/DTD/svg11.dtd"><svg t="1486620281666" class="icon" style="" viewBox="0 0 1024 1024" version="1.1" xmlns="http://www.w3.org/2000/svg" p-id="5167" xmlns:xlink="http://www.w3.org/1999/xlink" width="200" height="200"><defs><style type="text/css"></style></defs><path d="M336.03454 596.122413c0-21.081397-18.887111-29.444063-42.463492-29.444063l-16.107683 0 0 58.904381c4.648635 0.617651 10.24 0.617651 18.285714 0.617651C317.139302 626.200381 336.03454 618.138413 336.03454 596.122413z" p-id="5168"></path><path d="M838.761651 394.329397l-19.902984 0L818.858667 298.284698c0-0.601397-0.097524-1.202794-0.170667-1.812317-0.032508-3.811556-1.251556-7.558095-3.860317-10.524444L655.002413 103.383365c-0.048762-0.048762-0.097524-0.065016-0.130032-0.113778-0.950857-1.064635-2.064254-1.950476-3.23454-2.714413-0.34946-0.235683-0.698921-0.43073-1.064635-0.633905-1.015873-0.552635-2.096762-1.015873-3.210159-1.349079-0.300698-0.08127-0.568889-0.203175-0.869587-0.284444-1.202794-0.284444-2.462476-0.463238-3.730286-0.463238L249.969778 97.824508c-17.936254 0-32.507937 14.587937-32.507937 32.507937l0 263.996952-19.902984 0c-25.656889 0-46.461968 20.796952-46.461968 46.461968l0 241.615238c0 25.648762 20.805079 46.461968 46.461968 46.461968l19.902984 0 0 165.400381c0 17.92 14.571683 32.507937 32.507937 32.507937l536.380952 0c17.92 0 32.507937-14.587937 32.507937-32.507937L818.858667 728.876698l19.902984 0c25.656889 0 46.461968-20.813206 46.461968-46.461968l0-241.615238C885.223619 415.126349 864.41854 394.329397 838.761651 394.329397zM249.969778 130.332444 626.509206 130.332444l0 166.31873c0 8.980317 7.281778 16.253968 16.253968 16.253968l143.587556 0 0 81.432381-536.380952 0L249.969778 130.332444zM643.900952 659.074032l-46.193778 0-3.112635-80.002032c-0.918349-25.112381-1.861079-55.491048-1.861079-85.869714l-0.918349 0c-6.525968 26.664635-15.205587 56.409397-23.267556 80.920381L543.126349 655.644444l-36.872127 0-22.332952-80.904127c-6.810413-24.49473-13.954032-54.255746-18.903365-81.538032l-0.617651 0c-1.235302 28.208762-2.194286 60.456635-3.730286 86.495492l-3.714032 79.384381-43.715048 0 13.336381-208.969143 62.935365 0 20.463746 69.762032c6.509714 24.177778 13.019429 50.208508 17.668063 74.711365l0.934603 0c5.892063-24.194032 13.019429-51.777016 19.837968-75.028317l22.332952-69.445079 61.68381 0L643.900952 659.074032zM230.635683 658.131302 230.635683 452.900571c12.409905-2.494984 37.522286-4.347937 61.082413-4.347937 28.826413 0 46.51073 2.795683 61.700063 11.776 14.571683 7.76127 25.112381 22.016 25.112381 40.935619 0 18.602667-10.841397 35.953778-34.409651 44.633397l0 0.617651c23.877079 6.525968 41.537016 24.49473 41.537016 51.460063 0 18.919619-8.663365 33.792-21.682794 44.348952-15.205587 12.092952-40.634921 18.903365-82.171937 18.903365C258.543746 661.227683 241.192635 659.675429 230.635683 658.131302zM786.35073 885.459302l-536.380952 0L249.969778 728.876698l536.380952 0L786.35073 885.459302zM810.999873 563.265016c-16.123937 15.189333-40.001016 22.016-67.900952 22.016-6.192762 0-11.776-0.316952-16.107683-0.918349l0 74.711365-46.827683 0L680.163556 452.900571c14.571683-2.494984 35.035429-4.347937 63.869968-4.347937 29.127111 0 49.90781 5.591365 63.853714 16.749714 13.336381 10.540698 22.332952 27.908063 22.332952 48.363683S823.409778 551.480889 810.999873 563.265016z" p-id="5169"></path><path d="M746.504127 484.197587c-9.606095 0-16.107683 0.934603-19.521016 1.869206l0 61.68381c4.030984 0.934603 8.980317 1.235302 15.79073 1.235302 25.128635 0 40.634921-12.702476 40.634921-34.092698C783.408762 495.656635 770.080508 484.197587 746.504127 484.197587z" p-id="5170"></path><path d="M331.093333 507.14819c0-15.806984-12.092952-24.194032-33.491302-24.194032-10.223746 0-16.123937 0.617651-20.146794 1.235302l0 48.680635 15.490032 0C317.765079 532.878222 331.093333 522.662603 331.093333 507.14819z" p-id="5171"></path></svg>