<?xml version="1.0" standalone="no"?><!DOCTYPE svg PUBLIC "-//W3C//DTD SVG 1.1//EN" "http://www.w3.org/Graphics/SVG/1.1/DTD/svg11.dtd"><svg t="1486620330143" class="icon" style="" viewBox="0 0 1024 1024" version="1.1" xmlns="http://www.w3.org/2000/svg" p-id="5704" xmlns:xlink="http://www.w3.org/1999/xlink" width="200" height="200"><defs><style type="text/css"></style></defs><path d="M879.722496 297.363456H634.386432V52.023296l-490.708992-0.055296V481.36192h736.045056z" fill="" p-id="5705"></path><path d="M661.438464 52.023296v218.284032h218.284032zM22.761472 542.695424v429.336576H1003.52V542.695424H22.761472z m393.619456 378.914816h-41.9328l-6.709248-33.96608c-11.741184 15.09376-24.73984 25.6512-38.998016 31.660032-14.258176 6.006784-28.659712 9.015296-43.19232 9.015296-22.925312 0-43.544576-3.98336-61.851648-11.952128-18.313216-7.968768-33.757184-18.935808-46.336-32.917504-12.580864-13.975552-22.224896-30.40256-28.934144-49.272832-6.709248-18.868224-10.063872-39.206912-10.063872-61.011968 0-22.362112 3.354624-43.12064 10.063872-62.271488 6.709248-19.146752 16.35328-35.852288 28.934144-50.110464 12.580864-14.256128 28.022784-25.43616 46.336-33.54624 18.307072-8.105984 38.926336-12.161024 61.851648-12.161024 15.372288 0 30.257152 2.306048 44.658688 6.920192 14.395392 4.612096 27.394048 11.393024 38.998016 20.338688 11.597824 8.94976 21.174272 19.98848 28.725248 33.1264 7.54688 13.144064 12.161024 28.239872 13.838336 45.287424h-62.900224c-3.917824-16.77312-11.466752-29.353984-22.644736-37.740544-11.184128-8.384512-24.73984-12.578816-40.67328-12.578816-14.821376 0-27.400192 2.869248-37.738496 8.597504-10.344448 5.732352-18.733056 13.416448-25.15968 23.062528-6.434816 9.644032-11.112448 20.619264-14.047232 32.917504-2.936832 12.306432-4.4032 25.022464-4.4032 38.160384 0 12.580864 1.466368 24.813568 4.4032 36.694016 2.932736 11.884544 7.612416 22.577152 14.047232 32.077824 6.426624 9.506816 14.815232 17.127424 25.15968 22.853632 10.338304 5.732352 22.919168 8.597504 37.738496 8.597504 21.805056 0 38.643712-5.517312 50.530304-16.564224 11.8784-11.042816 18.798592-27.047936 20.75648-48.013312h-66.254848V759.74656h125.800448v161.86368z m155.891712 6.709248h-52.994048V625.6128h52.994048v302.706688z m299.890688-256.915456h-156.012544v79.27808h136.937472v43.241472h-136.937472v134.395904h-52.994048V625.614848h209.006592v45.789184z" fill="" p-id="5706"></path></svg>