<?xml version="1.0" standalone="no"?><!DOCTYPE svg PUBLIC "-//W3C//DTD SVG 1.1//EN" "http://www.w3.org/Graphics/SVG/1.1/DTD/svg11.dtd"><svg t="1486620238381" class="icon" style="" viewBox="0 0 1024 1024" version="1.1" xmlns="http://www.w3.org/2000/svg" p-id="4851" xmlns:xlink="http://www.w3.org/1999/xlink" width="200" height="200"><defs><style type="text/css"></style></defs><path d="M678.880263 231.770667c0 5.215792 4.227278 9.44307 9.445116 9.44307l170.025395 0L678.880263 61.745273 678.880263 231.770667z" p-id="4852"></path><path d="M688.325379 269.556249c-20.833491 0-37.784558-16.95516-37.784558-37.785581L650.540821 61.745273 173.490821 61.745273c-4.330632 0-7.841595 3.507894-7.841595 7.842619l0 884.82524c0 4.334725 3.510964 7.841595 7.841595 7.841595l677.019381 0c4.329609 0 7.841595-3.50687 7.841595-7.841595L858.351797 269.556249 688.325379 269.556249zM475.487923 151.71333c2.90312-8.821923 7.137561-16.280802 12.70844-22.400173 5.567809-6.112208 12.402471-10.774391 20.496823-13.991666 8.098445-3.209088 17.337877-4.809539 27.726481-4.809539 6.15007 0 12.145621 0.521886 17.984606 1.577938 5.844102 1.064238 11.666714 2.481518 17.476023 4.257977l0 24.904203c-5.057179-2.38942-10.644431-4.350075-16.755616-5.889127-6.118348-1.539053-12.283768-2.305509-18.502399-2.305509-6.287193 0-11.834536 1.087774-16.652262 3.27765-4.816702 2.190899-8.851599 5.299703-12.095479 9.327436-3.246951 4.028757-5.704932 8.982582-7.378038 14.857383-1.678222 5.880941-2.512217 12.505825-2.512217 19.887956 0 7.106862 0.647753 13.516852 1.948375 19.21462 1.294482 5.712095 3.396353 10.559497 6.302543 14.550391 2.90312 3.997034 6.643304 7.059789 11.223622 9.174963 4.576225 2.12029 10.147104 3.184529 16.705474 3.184529 1.569752 0 2.936889-0.053212 4.097318-0.152473 1.164522-0.106424 2.255367-0.25992 3.281743-0.466628s1.998517-0.445138 2.920516-0.712221c0.923022-0.276293 1.896186-0.581238 2.921539-0.926092l0-34.231639-22.75526 0 0-20.806885 47.659463 0 0 71.434959c-6.15007 2.87242-12.570293 4.992711-19.267832 6.355755-6.696516 1.363044-13.975293 2.052752-21.829168 2.052752-9.292644 0-17.647939-1.438769-25.060769-4.304026-7.41283-2.871397-13.719466-7.137561-18.911722-12.811794-5.191232-5.675256-9.169847-12.712533-11.938913-21.113877-2.768043-8.408507-4.15053-18.142196-4.15053-29.208229C471.130685 170.506349 472.581734 160.520927 475.487923 151.71333zM360.544031 112.76425l30.953989 0 36.59036 80.456427 6.456039 15.683191L434.544419 149.760862l0-36.996612 22.959921 0 0 133.955898-30.747281 0-35.875069-79.942727-7.379061-17.223267 0 55.552224 0 41.61377-22.958898 0L360.544031 112.76425zM249.340323 112.76425l39.250956 0c8.676613 0 16.350386 0.934279 23.01211 2.819209 6.659677 1.883907 12.260232 4.625344 16.806781 8.247848 4.544503 3.622504 7.995091 8.080026 10.352789 13.378705 2.355651 5.299703 3.5345 11.356652 3.5345 18.195408 0 6.968715-1.160429 13.402241-3.484358 19.313881s-5.774517 11.019984-10.349719 15.32401c-4.579295 4.304026-10.285251 7.650237-17.115819 10.039657-6.835685 2.397606-14.761192 3.591805-23.778566 3.591805l-12.812817 0 0 43.046399-25.416879 0L249.3393 112.76425zM820.566216 924.470169 203.433784 924.470169 203.433784 306.154795l617.132432 0L820.566216 924.470169z" p-id="4853"></path><path d="M300.381813 180.967608c3.347235-1.195222 6.164397-2.918469 8.454556-5.177929 2.286066-2.251274 4.031826-4.946662 5.226025-8.086166 1.195222-3.14769 1.792832-6.662747 1.792832-10.56052 0-3.553942-0.563842-6.777357-1.688455-9.68764-1.12973-2.902096-2.836605-5.375427-5.127787-7.42818-2.289136-2.052752-5.172813-3.622504-8.65717-4.717442-3.488451-1.087774-7.619538-1.639337-12.402471-1.639337l-13.222139 0 0 49.089022L288.797987 182.759417C293.171598 182.759417 297.030485 182.161806 300.381813 180.967608z" p-id="4854"></path><path d="M271.522532 381.992017l60.120262 0 0 60.116169-60.120262 0 0-60.116169Z" p-id="4855"></path><path d="M331.642794 442.108187l60.119239 0 0 60.116169-60.119239 0 0-60.116169Z" p-id="4856"></path><path d="M391.762033 381.992017l60.120262 0 0 60.116169-60.120262 0 0-60.116169Z" p-id="4857"></path><path d="M451.882296 442.108187l60.120262 0 0 60.116169-60.120262 0 0-60.116169Z" p-id="4858"></path><path d="M512.002558 381.992017l60.120262 0 0 60.116169-60.120262 0 0-60.116169Z" p-id="4859"></path><path d="M572.122821 442.108187l60.119239 0 0 60.116169-60.119239 0 0-60.116169Z" p-id="4860"></path><path d="M632.24206 381.992017l60.120262 0 0 60.116169-60.120262 0 0-60.116169Z" p-id="4861"></path><path d="M692.362322 442.108187l60.120262 0 0 60.116169-60.120262 0 0-60.116169Z" p-id="4862"></path><path d="M271.522532 502.224356l60.120262 0 0 60.124356-60.120262 0 0-60.124356Z" p-id="4863"></path><path d="M331.642794 562.348712l60.119239 0 0 60.124356-60.119239 0 0-60.124356Z" p-id="4864"></path><path d="M391.762033 502.224356l60.120262 0 0 60.124356-60.120262 0 0-60.124356Z" p-id="4865"></path><path d="M451.882296 562.348712l60.120262 0 0 60.124356-60.120262 0 0-60.124356Z" p-id="4866"></path><path d="M512.002558 502.224356l60.120262 0 0 60.124356-60.120262 0 0-60.124356Z" p-id="4867"></path><path d="M572.122821 562.348712l60.119239 0 0 60.124356-60.119239 0 0-60.124356Z" p-id="4868"></path><path d="M632.24206 502.224356l60.120262 0 0 60.124356-60.120262 0 0-60.124356Z" p-id="4869"></path><path d="M692.362322 562.348712l60.120262 0 0 60.124356-60.120262 0 0-60.124356Z" p-id="4870"></path><path d="M271.522532 622.473067l60.120262 0 0 60.115146-60.120262 0 0-60.115146Z" p-id="4871"></path><path d="M331.642794 682.588213l60.119239 0 0 60.116169-60.119239 0 0-60.116169Z" p-id="4872"></path><path d="M391.762033 622.473067l60.120262 0 0 60.115146-60.120262 0 0-60.115146Z" p-id="4873"></path><path d="M451.882296 682.588213l60.120262 0 0 60.116169-60.120262 0 0-60.116169Z" p-id="4874"></path><path d="M512.002558 622.473067l60.120262 0 0 60.115146-60.120262 0 0-60.115146Z" p-id="4875"></path><path d="M572.122821 682.588213l60.119239 0 0 60.116169-60.119239 0 0-60.116169Z" p-id="4876"></path><path d="M632.24206 622.473067l60.120262 0 0 60.115146-60.120262 0 0-60.115146Z" p-id="4877"></path><path d="M692.362322 682.588213l60.120262 0 0 60.116169-60.120262 0 0-60.116169Z" p-id="4878"></path><path d="M271.522532 742.704382l60.120262 0 0 60.124356-60.120262 0 0-60.124356Z" p-id="4879"></path><path d="M331.642794 802.828738l60.119239 0 0 60.123332-60.119239 0 0-60.123332Z" p-id="4880"></path><path d="M391.762033 742.704382l60.120262 0 0 60.124356-60.120262 0 0-60.124356Z" p-id="4881"></path><path d="M451.882296 802.828738l60.120262 0 0 60.123332-60.120262 0 0-60.123332Z" p-id="4882"></path><path d="M512.002558 742.704382l60.120262 0 0 60.124356-60.120262 0 0-60.124356Z" p-id="4883"></path><path d="M572.122821 802.828738l60.119239 0 0 60.123332-60.119239 0 0-60.123332Z" p-id="4884"></path><path d="M632.24206 742.704382l60.120262 0 0 60.124356-60.120262 0 0-60.124356Z" p-id="4885"></path><path d="M692.362322 802.828738l60.120262 0 0 60.123332-60.120262 0 0-60.123332Z" p-id="4886"></path></svg>