<?xml version="1.0" standalone="no"?><!DOCTYPE svg PUBLIC "-//W3C//DTD SVG 1.1//EN" "http://www.w3.org/Graphics/SVG/1.1/DTD/svg11.dtd"><svg t="1486619406012" class="icon" style="" viewBox="0 0 1024 1024" version="1.1" xmlns="http://www.w3.org/2000/svg" p-id="2140" xmlns:xlink="http://www.w3.org/1999/xlink" width="200" height="200"><defs><style type="text/css"></style></defs><path d="M632 864l0 160 192-192-160 0C646.336 832 632 846.336 632 864z" p-id="2141"></path><path d="M888 0 220 0c-26.496 0-48 21.488-48 48L840 48c17.68 0 32 14.32 32 32l0 667.664c26.4 0 47.776-21.312 47.968-47.664L920 700 920 32C920 14.32 905.68 0 888 0z" p-id="2142"></path><path d="M270.624 628.16c0.56 0.864 5.44 4.064 13.76 4.064 5.776 0 11.872-1.536 17.616-4.416 5.344-2.688 15.664-9.84 33.312-28.768-9.664 2.528-18.848 5.12-27.392 7.728C278.032 615.936 270.896 625.968 270.624 628.16z" p-id="2143"></path><path d="M474.512 462.752l-0.528 0.928-0.272-0.512c-17.12 28.016-37.088 57.952-56.688 85.056l1.44-0.304-0.816 1.024c36.464-6.064 72.304-10.112 104.272-11.792l-0.816-0.992 1.136 0C504.704 512.512 488.176 487.072 474.512 462.752z" p-id="2144"></path><path d="M485.44 371.664c11.872-46.576-1.456-73.728-7.296-75.984-0.912 1.104-10.208 13.184-11.648 50.816-0.336 8.912 1.472 23.552 10.064 46.416C483.008 379.776 484.928 373.696 485.44 371.664z" p-id="2145"></path><path d="M641.984 584.464c-6.128-4.4-19.904-11.008-49.472-14.24 7.104 7.216 13.632 13.072 19.2 17.248 25.504 19.024 38.752 21.088 43.264 21.088 1.648 0 2.496-0.272 2.704-0.384C658.304 606.272 655.792 594.384 641.984 584.464z" p-id="2146"></path><path d="M792 96l-656 0c-17.664 0-32 14.32-32 32l0 864c0 17.664 14.336 32 32 32l464 0L600 832c0-17.664 14.336-32 32-32l192 0L824 128C824 110.32 809.664 96 792 96zM687.68 618.416c-4.448 13.856-16.688 22.128-32.704 22.128-17.008 0-38.016-9.232-62.416-27.44-15.44-11.536-32.224-29.744-44.928-44.752-45.584 0.512-103.2 7.232-159.984 18.672-29.728 37.2-53.68 60.528-71.248 69.376-10.192 5.12-21.264 7.84-32.016 7.84-23.968 0-42.64-12.976-45.424-31.552-2.048-13.664 2.976-39.152 59.584-56.496 20.912-6.4 45.424-12.656 71.2-18.128 29.392-37.856 62.72-87.232 87.264-129.248-15.744-33.872-23.312-61.936-22.48-83.504 2.816-73.568 31.872-81.504 44.256-81.504 10.224 0 20 5.328 27.52 15.008 13.04 16.784 22.56 52.096 10.144 100.8-2.688 10.576-10.496 27.488-23.248 50.368 17.712 34.576 43.104 73.408 69.6 106.448 45.792 0.88 78.704 8.304 97.872 22.08C682.816 574.4 693.92 599.04 687.68 618.416z" p-id="2147"></path></svg>