<?xml version="1.0" standalone="no"?><!DOCTYPE svg PUBLIC "-//W3C//DTD SVG 1.1//EN" "http://www.w3.org/Graphics/SVG/1.1/DTD/svg11.dtd"><svg t="1486619638434" class="icon" style="" viewBox="0 0 1024 1024" version="1.1" xmlns="http://www.w3.org/2000/svg" p-id="2022" xmlns:xlink="http://www.w3.org/1999/xlink" width="200" height="200"><defs><style type="text/css"></style></defs><path d="M741.696116 384.727315 607.207705 384.727315 512.000512 524.988826 416.789225 384.727315 282.242484 384.727315 443.512938 625.847931 261.546291 893.813962 522.313814 893.813962 522.313814 802.77348 462.032469 802.77348 512.000512 728.138642 622.744176 893.813962 762.389238 893.813962 580.483992 625.847931Z" p-id="2023"></path><path d="M901.163431 201.214744 759.097127 59.153238c-30.886693-30.886451-91.97853-56.240909-135.729732-56.240909l-477.289567 0c-43.752226 0-79.548943 35.795251-79.548943 79.545684l0 859.083973c0 43.750433 35.796717 79.544661 79.548943 79.544661l731.844343 0c43.751202 0 79.54792-35.794228 79.54792-79.544661L957.470092 337.000314C957.470092 293.250904 932.113572 232.102219 901.163431 201.214744zM702.915315 94.948489c4.285782 2.982938 8.079333 6.089695 11.186218 9.195429l142.067327 142.063553c3.107908 3.106758 6.21377 6.898107 9.259254 11.248182L702.915315 257.455653 702.915315 94.948489zM893.831142 941.541987c0 8.639774-7.333313 15.909341-15.90897 15.909341L146.077828 957.451328c-8.701529 0-15.909993-7.330966-15.909993-15.909341L130.167835 82.458013c0-8.639774 7.334336-15.909341 15.909993-15.909341l477.289567 0c4.721728 0 10.191524 0.620124 15.909993 1.738597l0 252.80268 252.813038 0c1.119543 5.718235 1.740715 11.062963 1.740715 15.909341L893.831142 941.541987z" p-id="2024"></path></svg>