<?xml version="1.0" standalone="no"?><!DOCTYPE svg PUBLIC "-//W3C//DTD SVG 1.1//EN" "http://www.w3.org/Graphics/SVG/1.1/DTD/svg11.dtd"><svg t="1486620051169" class="icon" style="" viewBox="0 0 1024 1024" version="1.1" xmlns="http://www.w3.org/2000/svg" p-id="3347" xmlns:xlink="http://www.w3.org/1999/xlink" width="200" height="200"><defs><style type="text/css"></style></defs><path d="M680.188874 542.567164 230.156852 542.567164l0 36.541655 450.032022 0L680.188874 542.567164zM230.156852 846.710448l571.744912 0L801.901764 810.168792 230.156852 810.168792 230.156852 846.710448zM680.188874 445.308005 230.156852 445.308005l0 36.541655 450.032022 0L680.188874 445.308005zM449.128901 189.794301 230.156852 189.794301l0 218.972049 218.972049 0L449.128901 189.794301zM424.814111 384.45156 254.471642 384.45156 254.471642 214.109091l170.342469 0L424.814111 384.45156zM230.156852 761.539213l571.744912 0L801.901764 724.997558 230.156852 724.997558 230.156852 761.539213zM735.070828 92.535142l-626.626866-36.541655 0 924.378833 802.804885 0L911.248847 272.047761 735.070828 92.535142zM838.304478 919.654817 181.527273 919.654817 181.527273 141.164722l547.430122 24.31479L728.957395 277.883311 838.304478 274.965536 838.304478 919.654817zM230.156852 676.367978l571.744912 0L801.901764 639.965265 230.156852 639.965265 230.156852 676.367978z" p-id="3348"></path></svg>