<?xml version="1.0" standalone="no"?><!DOCTYPE svg PUBLIC "-//W3C//DTD SVG 1.1//EN" "http://www.w3.org/Graphics/SVG/1.1/DTD/svg11.dtd"><svg t="1486619470302" class="icon" style="" viewBox="0 0 1024 1024" version="1.1" xmlns="http://www.w3.org/2000/svg" p-id="2822" xmlns:xlink="http://www.w3.org/1999/xlink" width="200" height="200"><defs><style type="text/css"></style></defs><path d="M626.249728 510.253056 665.86624 510.253056 620.227584 703.379456 560.866304 431.814656 465.552384 431.814656 396.597248 703.379456 344.843264 431.814656 245.246976 431.814656 346.365952 868.95104 443.727872 868.95104 512 610.379776 572.97408 868.95104 662.731776 868.95104 778.752 431.814656 626.249728 431.814656Z" p-id="2823"></path><path d="M903.373824 199.42912 760.496128 56.566784C729.480192 25.442304 667.977728 0 623.983616 0L143.971328 0C99.976192 0 63.995904 35.997696 63.995904 79.991808l0 864c0 44.024832 35.982336 80.008192 79.976448 80.008192l736.0256 0c43.992064 0 80.008192-35.98336 80.008192-80.008192L960.006144 336.004096C960.004096 291.995648 934.483968 230.567936 903.373824 199.42912zM703.991808 92.565504c4.375552 2.9952 8.131584 6.116352 11.362304 9.25184L858.231808 244.69504c3.134464 3.119104 6.148096 6.985728 9.25184 11.300864l-163.49184 0L703.991808 92.565504 703.991808 92.565504zM895.985664 943.991808c0 8.694784-7.392256 16.021504-15.98976 16.021504L143.971328 960.013312c-8.630272 0-15.98976-7.325696-15.98976-16.021504L127.981568 79.991808c0-8.677376 7.359488-15.988736 15.98976-15.988736l480.013312 0c4.87424 0 10.246144 0.55808 15.987712 1.677312l0 254.318592 254.273536 0c1.118208 5.758976 1.737728 11.193344 1.737728 16.00512l0 607.987712L895.985664 943.991808z" p-id="2824"></path></svg>