<?xml version="1.0" standalone="no"?><!DOCTYPE svg PUBLIC "-//W3C//DTD SVG 1.1//EN" "http://www.w3.org/Graphics/SVG/1.1/DTD/svg11.dtd"><svg t="1486620438109" class="icon" style="" viewBox="0 0 1024 1024" version="1.1" xmlns="http://www.w3.org/2000/svg" p-id="6375" xmlns:xlink="http://www.w3.org/1999/xlink" width="200" height="200"><defs><style type="text/css"></style></defs><path d="M64.528666 64.528666h894.942668v894.942668H64.528666z" fill="#804D25" p-id="6376"></path><path d="M709.986213 785.548166H314.012763c-8.477069 0-15.349593-6.872524-15.349593-15.349593V253.800403c0-8.477069 6.872524-15.349593 15.349593-15.349593h395.97345c8.477069 0 15.349593 6.872524 15.349593 15.349593v516.399194c0 8.477069-6.871501 15.34857-15.349593 15.348569z m-380.623857-30.699186h365.274264V269.149996H329.362356v485.698984z" fill="#FFFFFF" p-id="6377"></path><path d="M507.874029 266.49861h42.328038v42.328038h-42.328038zM465.545992 308.826648h42.328037v42.328037h-42.328037zM507.874029 351.154685h42.328038v42.328038h-42.328038zM465.545992 393.481699h42.328037v42.328038h-42.328037zM507.874029 435.809737h42.328038v42.328038h-42.328038zM465.545992 478.137775h42.328037v42.328037h-42.328037zM507.080967 520.470929v41.955554h-41.955554v42.97886h84.934414v-84.934414z" fill="#FFFFFF" p-id="6378"></path></svg>