<?xml version="1.0" standalone="no"?><!DOCTYPE svg PUBLIC "-//W3C//DTD SVG 1.1//EN" "http://www.w3.org/Graphics/SVG/1.1/DTD/svg11.dtd"><svg t="1486620613635" class="icon" style="" viewBox="0 0 1024 1024" version="1.1" xmlns="http://www.w3.org/2000/svg" p-id="1592" xmlns:xlink="http://www.w3.org/1999/xlink" width="200" height="200"><defs><style type="text/css"></style></defs><path d="M904.311688 179.532468c-6.649351-6.137862-13.81019-12.787213-21.994006-20.459541-23.016983-20.971029-45.522478-41.942058-67.516483-61.89011-2.557443-2.045954-2.557443-2.045954-5.114885-4.603396-29.154845-26.085914-53.194805-47.568432-71.096903-62.913087-10.22977-8.695305-18.925075-15.344655-24.551449-19.948052-4.091908-3.068931-7.160839-5.114885-10.741259-6.649351-4.091908-2.045954-7.672328-3.068931-13.298701-3.068931-14.321678 0.511489-25.574426 11.764236-25.574426 26.085914v230.16983h230.169831l-25.574426-25.574425V998.425574l25.574426-25.574425h-664.935065c-42.453546 0-76.723277-34.26973-76.723277-76.723277V27.108891l-25.574426 25.574426h460.339661c14.321678 0 25.574426-11.252747 25.574425-25.574426s-11.252747-25.574426-25.574425-25.574425h-485.914086V896.127872c0 70.585415 57.286713 127.872128 127.872128 127.872128h690.50949V206.12987h-230.16983l25.574426 25.574426v-204.595405c0 13.81019-11.252747 24.551449-24.551449 25.062937-4.603397 0-7.160839-0.511489-9.718282-2.045954-0.511489 0 1.022977 0.511489 2.557443 1.534466 4.603397 3.58042 12.275724 9.206793 21.482517 17.390609 17.390609 14.833167 40.919081 35.804196 69.562438 61.378621 2.557443 2.045954 2.557443 2.045954 5.114885 4.603397 21.482517 19.436563 44.4995 40.407592 67.004995 61.378621 8.183816 7.160839 15.344655 14.321678 21.994006 20.459541 4.091908 3.58042 6.649351 6.137862 8.183816 7.672328 10.22977 9.718282 26.597403 9.206793 36.315685-1.022977 9.718282-10.22977 9.206793-26.597403-1.022978-36.315685-1.534466-1.022977-4.091908-3.58042-8.183816-7.672327zM102.297702 461.874126h-102.297702v434.765235h1022.977023v-434.765235h-869.53047v-0.511489h-51.148851v0.511489z m179.532468 317.122877h155.492507v40.407592h-216.35964v-32.735264l150.377622-217.382618h-149.354645v-40.919081h210.733267v31.712288l-150.889111 218.917083z m252.163836 40.407592h-50.125874v-291.036963h50.125874V819.404595z m112.527473-107.924076V819.404595h-50.637363v-291.036963h111.504495c32.735265 0 58.30969 8.695305 77.234766 25.574426s28.643357 39.384615 28.643356 67.004995c0 28.643357-9.206793 50.637363-28.131868 66.493506-18.925075 15.856144-45.010989 23.528472-78.769231 23.528472h-59.844155z m0-40.91908h60.867132c17.902098 0 31.712288-4.091908 40.919081-12.787213 9.206793-8.695305 14.321678-20.45954 14.321679-36.827173 0-15.856144-4.603397-28.131868-14.321679-37.85015-9.718282-9.206793-23.016983-14.321678-39.384615-14.321678h-61.89011v101.786214z" fill="" p-id="1593"></path></svg>