<?xml version="1.0" standalone="no"?><!DOCTYPE svg PUBLIC "-//W3C//DTD SVG 1.1//EN" "http://www.w3.org/Graphics/SVG/1.1/DTD/svg11.dtd"><svg width="200" height="200" viewBox="0 0 200 200" version="1.1" xmlns="http://www.w3.org/2000/svg" xmlns:xlink="http://www.w3.org/1999/xlink"><defs><style type="text/css"><![CDATA[
@font-face { font-family: ifont; src: url("http://at.alicdn.com/t/font_1442373896_4754455.eot?#iefix") format("embedded-opentype"), url("http://at.alicdn.com/t/font_1442373896_4754455.woff") format("woff"), url("http://at.alicdn.com/t/font_1442373896_4754455.ttf") format("truetype"), url("http://at.alicdn.com/t/font_1442373896_4754455.svg#ifont") format("svg"); }

]]></style></defs><g class="transform-group"><g transform="scale(0.1953125, 0.1953125)"><path d="M754.782 212.596 512 455.368 269.218 212.596c-13.081-13.081-34.29-13.081-47.369 0-13.081 13.081-13.081 34.288 0 47.367l242.782 242.771L221.849 745.507c-13.081 13.081-13.081 34.288 0 47.367 13.081 13.081 34.29 13.081 47.369 0L512 550.103l242.782 242.771c13.081 13.081 34.289 13.081 47.37 0 13.081-13.081 13.081-34.288 0-47.367L559.37 502.735l242.782-242.771c13.081-13.081 13.081-34.288 0-47.367C789.07 199.517 767.862 199.517 754.782 212.596z" fill="#272636"></path></g></g></svg>