<?xml version="1.0" standalone="no"?><!DOCTYPE svg PUBLIC "-//W3C//DTD SVG 1.1//EN" "http://www.w3.org/Graphics/SVG/1.1/DTD/svg11.dtd"><svg width="200" height="200" viewBox="0 0 200 200" version="1.1" xmlns="http://www.w3.org/2000/svg" xmlns:xlink="http://www.w3.org/1999/xlink"><defs><style type="text/css"><![CDATA[
@font-face { font-family: ifont; src: url("http://at.alicdn.com/t/font_1442373896_4754455.eot?#iefix") format("embedded-opentype"), url("http://at.alicdn.com/t/font_1442373896_4754455.woff") format("woff"), url("http://at.alicdn.com/t/font_1442373896_4754455.ttf") format("truetype"), url("http://at.alicdn.com/t/font_1442373896_4754455.svg#ifont") format("svg"); }

]]></style></defs><g class="transform-group"><g transform="scale(0.1953125, 0.1953125)"><path d="M668.395468 554.401716c0 9.858532-8.995885 17.86181-20.100804 17.86181-11.102872 0-20.09978-8.003278-20.09978-17.86181l0-7.653307L396.499941 546.748409l0 7.653307c0 9.858532-8.995885 17.86181-20.09978 17.86181-11.102872 0-20.103874-8.003278-20.103874-17.86181l0-7.653307L204.905298 546.748409l0 237.049904c0 32.229029 29.395494 58.34585 65.664535 58.34585l483.551064 0c36.269042 0 65.671699-26.115797 65.671699-58.34585L819.792597 546.748409 668.395468 546.748409 668.395468 554.401716zM754.119875 345.283977l-46.977941 0c-2.861164-42.316781-22.763446-81.740676-56.783261-111.961978-36.867676-32.752961-85.878926-50.788733-138.010237-50.788733-52.132334 0-101.142561 18.035772-138.01126 50.788733-34.024931 30.220279-53.92312 69.645197-56.788377 111.961978l-46.978964 0c-36.269042 0-65.664535 26.115797-65.664535 58.332547l0 107.409289 151.389966 0 0-7.653307c0-9.869788 9.001001-17.86181 20.103874-17.86181 11.103896 0 20.09978 7.992021 20.09978 17.86181l0 7.653307 231.695966 0 0-7.653307c0-9.869788 8.996908-17.86181 20.09978-17.86181 11.104919 0 20.100804 7.992021 20.100804 17.86181l0 7.653307 151.396105 0L819.791573 403.616524C819.791573 371.398752 790.38994 345.283977 754.119875 345.283977zM332.850295 432.178023c-17.627473 0-31.924083-12.697183-31.924083-28.364001 0-10.590196 6.556323-19.837814 16.251126-24.695448l0 17.729803c0 7.697309 7.013741 13.931291 15.671934 13.931291 8.65717 0 15.677051-6.233981 15.677051-13.931291L348.526323 379.11755c9.695826 4.858658 16.244986 14.093996 16.244986 24.695448C364.772332 419.48084 350.481861 432.178023 332.850295 432.178023zM348.964298 345.283977c6.157233-75.31022 77.078493-134.899386 163.384138-134.899386 86.304621 0 157.225881 59.5994 163.384138 134.899386L348.964298 345.283977zM691.846576 432.178023c-17.631566 0-31.92306-12.697183-31.92306-28.364001 0-10.590196 6.550183-19.837814 16.244986-24.695448l0 17.729803c0 7.697309 7.019881 13.931291 15.678074 13.931291s15.677051-6.233981 15.677051-13.931291L707.523627 379.11755c9.695826 4.858658 16.247033 14.093996 16.247033 24.695448C723.770659 419.48084 709.467909 432.178023 691.846576 432.178023z" fill="#272636"></path></g></g></svg>