<?xml version="1.0" standalone="no"?><!DOCTYPE svg PUBLIC "-//W3C//DTD SVG 1.1//EN" "http://www.w3.org/Graphics/SVG/1.1/DTD/svg11.dtd"><svg width="200" height="200" viewBox="0 0 200 200" version="1.1" xmlns="http://www.w3.org/2000/svg" xmlns:xlink="http://www.w3.org/1999/xlink"><defs><style type="text/css"><![CDATA[
@font-face { font-family: ifont; src: url("http://at.alicdn.com/t/font_1442373896_4754455.eot?#iefix") format("embedded-opentype"), url("http://at.alicdn.com/t/font_1442373896_4754455.woff") format("woff"), url("http://at.alicdn.com/t/font_1442373896_4754455.ttf") format("truetype"), url("http://at.alicdn.com/t/font_1442373896_4754455.svg#ifont") format("svg"); }

]]></style></defs><g class="transform-group"><g transform="scale(0.1953125, 0.1953125)"><path d="M816.818 104.227l-55.88 0c-15.456 0-33.289 9.51-33.289 24.967 0 15.456 17.833 30.912 33.289 30.912l55.88 0c33.288 0 55.879 22.59 55.879 55.879l0 643.19c0 33.289-22.591 55.879-55.879 55.879L215.236 915.054c-33.289 0-70.144-22.59-70.144-55.879L145.092 215.986c0-33.289 22.59-55.879 55.879-55.879l70.144 0c15.455 0 21.4-15.457 21.4-30.912 0-15.457-5.945-24.967-21.4-24.967l-70.143 0c-78.469-0.001-111.758 48.744-111.758 112.945l0 636.058c0 68.955 41.611 117.698 117.699 117.698l603.957 0c76.093 0 117.704-40.423 117.704-117.698L928.574 217.173C928.575 152.972 889.341 104.227 816.818 104.227L816.818 104.227zM271.115 356.275c0 15.456 13.08 28.531 28.531 28.531l419.681 0c15.456 0 28.536-13.075 28.536-28.531 0-15.457-13.08-28.536-28.536-28.536L299.646 327.739C284.195 327.739 271.115 340.818 271.115 356.275L271.115 356.275zM718.139 482.297 299.646 482.297c-15.451 0-28.531 13.079-28.531 28.536 0 15.452 13.08 28.531 28.531 28.531l419.681 0c15.456 0 28.536-13.079 28.536-28.531C746.675 494.188 733.595 482.297 718.139 482.297L718.139 482.297zM718.139 649.929 299.646 649.929c-15.451 0-28.531 13.08-28.531 28.537 0 15.455 13.08 28.53 28.531 28.53l419.681 0c15.456 0 28.536-13.075 28.536-28.53C746.675 661.82 733.595 649.929 718.139 649.929L718.139 649.929zM412.593 174.374l194.98 0c22.591 0 41.61-22.59 41.61-48.746 0-26.154-19.021-48.745-42.799-48.745L412.593 76.883c-23.778 0-42.799 22.59-42.799 48.745C369.794 151.784 388.814 174.374 412.593 174.374L412.593 174.374z" fill="#272636"></path></g></g></svg>