<?xml version="1.0" standalone="no"?><!DOCTYPE svg PUBLIC "-//W3C//DTD SVG 1.1//EN" "http://www.w3.org/Graphics/SVG/1.1/DTD/svg11.dtd"><svg class="icon" style="" viewBox="0 0 1024 1024" version="1.1" xmlns="http://www.w3.org/2000/svg" p-id="2576" xmlns:xlink="http://www.w3.org/1999/xlink" width="200" height="200"><defs><style type="text/css"><![CDATA[

]]></style></defs><path d="M590.754909 930.909091c-6.516364 0-12.939636-2.094545-18.222545-6.237091L407.272727 791.272727c0.325818 2.56 0-14.475636 0-23.272727L407.272727 512c0-0.930909-12.404364-19.432727-13.056-20.061091L130.443636 231.237818c-1.047273-1.047273-2.071273-2.141091-2.909091-3.304727C112.616727 212.48 104.727273 193.000727 104.727273 172.427636 104.727273 128.698182 130.350545 93.090909 174.545455 93.090909l674.909091 0c44.194909 0 69.818182 35.607273 69.818182 79.336727 0 20.363636-7.842909 39.749818-22.039273 54.504727-0.535273 0.744727-1.652364 2.048-2.397091 2.676364L621.032727 500.224C620.381091 500.852364 616.727273 511.069091 616.727273 512l0 395.636364c0 11.101091-3.165091 15.639273-13.358545 20.456727C599.342545 929.978182 595.013818 930.909091 590.754909 930.909091L590.754909 930.909091zM453.701818 757.480727 570.181818 861.090909 570.181818 512c0-16.384-2.210909-41.053091 9.402182-52.619636L852.549818 189.719273c0.861091-1.000727 1.652364-1.838545 2.490182-2.722909 3.607273-3.770182 5.771636-9.053091 5.771636-14.568727C860.811636 160.535273 861.44 139.636364 849.454545 139.636364l-674.909091 0c-12.032 0-11.403636 20.945455-11.403636 32.791273 0 5.562182 2.187636 10.891636 6.097455 14.871273 1.419636 1.466182 2.699636 3.025455 3.909818 4.514909l262.423273 259.304727c11.496727 11.357091 18.129455 27.136 18.129455 43.264L453.701818 757.480727 453.701818 757.480727zM453.701818 757.480727" p-id="2577"></path></svg>