<?xml version="1.0" standalone="no"?><!DOCTYPE svg PUBLIC "-//W3C//DTD SVG 1.1//EN" "http://www.w3.org/Graphics/SVG/1.1/DTD/svg11.dtd"><svg t="1483079023571" class="icon" style="" viewBox="0 0 1024 1024" version="1.1" xmlns="http://www.w3.org/2000/svg" p-id="1972" xmlns:xlink="http://www.w3.org/1999/xlink" width="200" height="200"><defs><style type="text/css"></style></defs><path d="M112.470561 156.560732c31.342846-4.091178 58.774615 19.575848 58.988486 50.846038 0.213871 31.571043-25.767873 52.700269-51.870368 52.884464-29.998221 0.213871-51.233871-23.2444-52.879348-48.812729C64.869427 182.920076 84.163865 160.248727 112.470561 156.560732L112.470561 156.560732zM250.779603 181.983751 955.557188 181.983751l0 51.865251L249.765507 233.849002l0-48.812729C249.678526 183.590342 249.595638 182.15362 250.779603 181.983751L250.779603 181.983751zM111.455441 470.809879c12.787234-1.868557 28.271904 1.689479 36.613896 7.119141 11.272741 7.342222 23.355941 25.990954 23.38971 43.726897 0.063445 33.862225-27.592428 52.718689-51.870368 52.884464-30.003338 0.203638-51.272757-23.807219-52.879348-48.812729C64.792679 495.955582 85.250616 474.632951 111.455441 470.809879L111.455441 470.809879zM250.779603 496.232898 955.557188 496.232898l0 51.865251L249.765507 548.098149l0-48.812729C249.678526 497.843582 249.595638 496.402767 250.779603 496.232898L250.779603 496.232898zM113.488751 758.616794c31.784914-3.411703 57.765635 20.939915 57.970296 50.851155 0.224104 33.249265-27.320229 53.994752-54.92289 52.879348-29.684066-1.194198-50.030463-25.913183-49.831942-52.879348C66.927295 780.254603 86.667895 761.498424 113.488751 758.616794L113.488751 758.616794zM250.779603 784.039813 955.557188 784.039813l0 51.870368L249.765507 835.910181l0-48.817846C249.678526 785.650497 249.595638 784.209682 250.779603 784.039813L250.779603 784.039813zM250.779603 784.039813" p-id="1973"></path></svg>