<?xml version="1.0" standalone="no"?><!DOCTYPE svg PUBLIC "-//W3C//DTD SVG 1.1//EN" "http://www.w3.org/Graphics/SVG/1.1/DTD/svg11.dtd"><svg t="1480643378901" class="icon" style="" viewBox="0 0 1024 1024" version="1.1" xmlns="http://www.w3.org/2000/svg" p-id="2537" xmlns:xlink="http://www.w3.org/1999/xlink" width="200" height="200"><defs><style type="text/css"></style></defs><path d="M392.104841 167.298284c0-16.553001 13.420661-44.961004 29.973662-44.961004l179.841971 0c16.553001 0 29.973662 28.408003 29.973662 44.961004 0 16.553001-13.420661 14.987343-29.973662 14.987343L422.078503 182.285626C405.525502 182.285626 392.104841 183.851285 392.104841 167.298284zM794.1598 362.127597l-42.369993 0L272.20917 362.127597l-42.36897 0c-59.376319 0-107.499339-11.855002-107.499339-44.961004 0-33.106002 48.121997-74.934666 107.499339-74.934666l564.320623 0c59.361993 0 107.498316 41.828664 107.498316 74.934666C901.658116 350.272595 853.521792 362.127597 794.1598 362.127597zM212.261846 422.074921l0 419.640476c0 66.210981 53.66934 119.894647 119.895671 119.894647l359.684966 0c66.226331 0 119.894647-53.683666 119.894647-119.894647L811.73713 422.074921l25.831318 0c68.509327 0 124.036991-38.689161 124.036991-104.908328 0-66.218144-55.527664-134.88199-124.036991-134.88199L706.828802 182.284603c0-33.106002-26.841322-119.895671-59.948347-119.895671L377.117498 62.388932c-33.106002 0-59.947324 86.789669-59.947324 119.895671L186.430528 182.284603c-68.509327 0-124.036991 68.662823-124.036991 134.88199 0 66.219167 55.527664 104.908328 124.036991 104.908328L212.261846 422.074921zM392.104841 422.074921l0 284.750299c0 16.553001 13.420661 29.973662 29.973662 29.973662s29.973662-13.420661 29.973662-29.973662L452.052165 422.074921l119.894647 0 0 284.750299c0 16.553001 13.420661 29.973662 29.973662 29.973662s29.973662-13.420661 29.973662-29.973662L631.894136 422.074921l119.895671 0 0 375.674125c0 57.387012-46.527686 103.913675-103.913675 103.913675L376.107495 901.662721c-57.370639 0-103.898325-46.526663-103.898325-103.913675L272.20917 422.074921 392.104841 422.074921z" p-id="2538"></path></svg>