<?xml version="1.0" standalone="no"?><!DOCTYPE svg PUBLIC "-//W3C//DTD SVG 1.1//EN" "http://www.w3.org/Graphics/SVG/1.1/DTD/svg11.dtd"><svg t="1483667293810" class="icon" style="" viewBox="0 0 1024 1024" version="1.1" xmlns="http://www.w3.org/2000/svg" p-id="1969" xmlns:xlink="http://www.w3.org/1999/xlink" width="200" height="200"><defs><style type="text/css"></style></defs><path d="M900.8128 506.9568c-1.0496 0.9984-2.1248 2.048-3.2512 3.2512L528.1792 879.6416l-0.1024 0.1536c-0.9472 0.64-1.792 1.4592-2.6368 2.304-92.1088 89.2416-240.5376 88.192-331.2128-2.5088-90.8544-90.8032-91.7504-239.488-2.048-331.5456C198.5024 541.6448 611.5328 128.2816 615.68 124.1344c64.6912-64.6144 169.8816-64.6144 234.5216 0 31.1552 31.2064 48.384 72.704 48.384 116.9152-0.0768 44.3392-17.408 86.016-48.8192 117.3504L424.5504 783.5392c-35.8912 32.5888-90.7264 31.2064-125.1584-3.2-34.432-34.3552-35.5328-89.3952-2.6624-125.312 0.64-0.5888 1.1776-1.3056 1.664-2.048l0.1536-0.0512c0.1536-0.1536 0.3072-0.3072 0.4352-0.4608l1.0752-1.1008c0.0768-0.0512 0.2048-0.1024 0.3072-0.256l369.664-369.6896c9.7536-9.7792 9.7536-25.6 0-35.4304-9.7792-9.7792-25.6768-9.7792-35.456 0L265.088 615.5008l-1.6384 1.5616c-0.2816 0.3072-0.64 0.64-0.9472 0.9984l-4.1728 4.096 0 0c-1.6384 1.6384-2.9952 3.5072-4.096 5.4528-45.4144 55.7056-41.8048 136.8576 9.6 188.2624 53.6576 53.5552 139.2384 55.4496 195.0208 4.2496 0.2304-0.2048 0.512-0.4608 0.768-0.6912l425.5232-425.5232c40.9088-40.7808 63.4624-95.0784 63.4624-152.832 0.0512-57.6-22.272-111.7184-63.0016-152.3456-84.1472-84.1472-221.2096-84.1472-305.4592 0l-211.8144 211.9936-145.6384 145.8432-65.8688 65.8944c-0.1536 0.2048-0.3328 0.3584-0.4864 0.5376l0 0c-108.9024 111.5392-107.8016 291.9424 2.3808 402.048C214.272 970.5984 287.616 998.4 361.0368 998.4c71.0144 0 142.1568-26.0608 197.1712-78.2592 0.4352-0.3072 0.8192-0.6912 1.2032-0.9984 0.4096-0.3584 0.7168-0.6912 1.1264-1.0496L563.2 915.5072c0.1024-0.1536 0.1792-0.1536 0.3072-0.3072l369.6384-369.6896c0.0512-0.0512 0.1792-0.256 0.2304-0.3072 0.64-0.5376 1.1776-1.2032 1.8944-1.8432 9.984-9.4976 10.4448-25.2928 0.9984-35.3792C926.6944 497.92 910.848 497.4592 900.8128 506.9568L900.8128 506.9568zM900.8128 506.9568" p-id="1970"></path></svg>