<?xml version="1.0" standalone="no"?><!DOCTYPE svg PUBLIC "-//W3C//DTD SVG 1.1//EN" "http://www.w3.org/Graphics/SVG/1.1/DTD/svg11.dtd"><svg t="1486522330129" class="icon" style="" viewBox="0 0 1024 1024" version="1.1" xmlns="http://www.w3.org/2000/svg" p-id="2468" xmlns:xlink="http://www.w3.org/1999/xlink" width="200" height="200"><defs><style type="text/css"></style></defs><path d="M654.207 693.463c-8.199 0-15.909-3.19-21.711-8.99l-301.527-301.526c-11.974-11.974-11.974-31.452 0-43.418 5.799-5.799 13.509-8.99 21.713-8.99s15.909 3.19 21.711 8.99l301.527 301.527c5.799 5.799 8.99 13.507 8.99 21.711s-3.19 15.909-8.99 21.711-13.509 8.99-21.713 8.99z" p-id="2469"></path><path d="M654.207 667.363c-1.179 0-2.355-0.449-3.254-1.344l-301.527-301.527c-1.799-1.799-1.799-4.711 0-6.512 1.799-1.798 4.711-1.798 6.51 0l301.527 301.526c1.798 1.799 1.798 4.711 0 6.512-0.905 0.905-2.077 1.346-3.257 1.346z" p-id="2470"></path><path d="M352.679 693.463c-8.199 0-15.91-3.19-21.713-8.99s-8.99-13.507-8.99-21.711 3.19-15.909 8.99-21.711l301.527-301.527c5.799-5.799 13.507-8.99 21.711-8.99s15.91 3.19 21.713 8.99c11.974 11.974 11.974 31.452 0 43.418l-301.527 301.526c-5.799 5.799-13.507 8.99-21.711 8.99z" p-id="2471"></path><path d="M352.679 667.363c-1.18 0-2.355-0.449-3.257-1.344-1.799-1.799-1.799-4.711 0-6.512l301.527-301.526c1.798-1.798 4.71-1.798 6.51 0 1.798 1.799 1.798 4.711 0 6.512l-301.527 301.526c-0.897 0.897-2.077 1.344-3.254 1.344z" p-id="2472"></path><path d="M503.445 877.731c-201.662 0-365.727-164.066-365.727-365.731s164.066-365.734 365.727-365.734c201.663 0 365.731 164.069 365.731 365.734s-164.066 365.731-365.731 365.731zM503.445 207.679c-167.803 0-304.321 136.517-304.321 304.321s136.516 304.322 304.321 304.322c167.809 0 304.322-136.517 304.322-304.322s-136.517-304.321-304.322-304.321z" p-id="2473"></path><path d="M503.445 851.637c-187.271 0-339.634-152.358-339.634-339.637s152.357-339.634 339.634-339.634c187.274 0 339.637 152.357 339.637 339.634 0 187.271-152.357 339.637-339.637 339.637zM503.445 181.577c-182.194 0-330.423 148.226-330.423 330.425s148.226 330.425 330.423 330.425c182.196 0 330.425-148.226 330.425-330.425 0-182.197-148.225-330.425-330.425-330.425z" p-id="2474"></path></svg>