<?xml version="1.0" standalone="no"?><!DOCTYPE svg PUBLIC "-//W3C//DTD SVG 1.1//EN" "http://www.w3.org/Graphics/SVG/1.1/DTD/svg11.dtd"><svg t="1480643281129" class="icon" style="" viewBox="0 0 1000 1000" version="1.1" xmlns="http://www.w3.org/2000/svg" p-id="1825" xmlns:xlink="http://www.w3.org/1999/xlink" width="200" height="200"><defs><style type="text/css"></style></defs><path d="M939.3396 138.0774c-15.6231-15.6224-40.952-15.6224-56.573 0L486.7604 534.0669c-15.6231 15.6204-15.6231 40.9482 0 56.5706 15.6211 15.6204 40.95 15.6204 56.571 0l396.0081-395.9895C954.9606 179.0256 954.9606 153.6978 939.3396 138.0774zM792.6369 562.8504c-21.8901 0-39.6378 17.745-39.6378 39.6361v198.1816328529257c0 21.8912-17.7457 39.6361-39.6378 39.6361H198.06603000491688c-21.8921 0-39.6378-17.745-39.6378-39.6361V166.487121731466c0-21.8892 17.7457-39.6361 39.6378-39.6361h396.379902382085c21.8921 0 39.6378-17.745 39.6378-39.6361 0-21.8892-17.7457-39.6361-39.6378-39.6361H158.4282396395892c-43.7822 0-79.2756 35.4919-79.2756 79.2723v713.4542779995163c0 43.7803 35.4934 79.2743 79.2756 79.2743h594.5708529375316c43.7842 0 79.2756-35.4939 79.2756-79.2743V602.4865141434108C832.2747 580.5954 814.529 562.8504 792.6369 562.8504z" p-id="1826"></path></svg>