<?xml version="1.0" standalone="no"?><!DOCTYPE svg PUBLIC "-//W3C//DTD SVG 1.1//EN" "http://www.w3.org/Graphics/SVG/1.1/DTD/svg11.dtd"><svg t="1483783847833" class="icon" style="" viewBox="0 0 1024 1024" version="1.1" xmlns="http://www.w3.org/2000/svg" p-id="1967" xmlns:xlink="http://www.w3.org/1999/xlink" width="200" height="200"><defs><style type="text/css"></style></defs><path d="M863.301163 847.297636l-54.693595 0L808.607567 456.028068c0-155.666387-113.594391-281.882377-269.260778-302.918375L514.103591 43.722502C514.103591 31.100903 501.481992 18.479304 488.860393 10.064905 476.238795 1.650505 463.617196-2.556694 446.788397 1.650505 429.959598 5.857705 417.337999 14.272104 408.9236 26.893703s-12.621599 29.450398-8.414399 42.071997l21.035998 88.351193c-134.630389 37.864797-222.981582 155.666387-222.981582 294.503976l0 391.269568-33.657597 0c-25.243198 0-46.279196 21.035998-46.279196 46.279196s21.035998 46.279196 46.279196 46.279196l273.467977 0 0 16.828799c0 42.071997 33.657597 71.522394 71.522394 71.522394S585.625986 998.756823 585.625986 960.892026l0-16.828799 273.467977 0c25.243198 0 46.279196-21.035998 46.279196-46.279196S888.54436 847.297636 863.301163 847.297636zM716.049175 456.028068l0 391.269568-420.719965 0L295.329209 456.028068c0-117.80159 92.558392-210.359983 210.359983-210.359983S716.049175 338.226478 716.049175 456.028068z" p-id="1968"></path></svg>