<?xml version="1.0" standalone="no"?><!DOCTYPE svg PUBLIC "-//W3C//DTD SVG 1.1//EN" "http://www.w3.org/Graphics/SVG/1.1/DTD/svg11.dtd"><svg t="1483782553344" class="icon" style="" viewBox="0 0 1024 1024" version="1.1" xmlns="http://www.w3.org/2000/svg" p-id="1023" xmlns:xlink="http://www.w3.org/1999/xlink" width="200" height="200"><defs><style type="text/css"></style></defs><path d="M510.444338 755.861825 233.787122 755.861825l0 39.471722 276.657217 0L510.444338 755.861825 510.444338 755.861825 510.444338 755.861825zM629.037086 676.562002 233.787122 676.562002l0 39.649303 395.249964 0L629.037086 676.562002 629.037086 676.562002 629.037086 676.562002zM431.500894 597.440977 233.787122 597.440977l0 39.471722 197.713773 0L431.500894 597.440977 431.500894 597.440977 431.500894 597.440977zM846.309138 77.710105 332.644008 77.710105c-10.845844 0-19.737077 8.890017-19.737077 19.737077l0 59.385164 39.471722 0L352.378653 117.360624l474.193408 0 0 651.994954-65.073851-52.273394c-3.556493-3.556493-8.534854-5.689902-14.047175-5.689902l0 47.650197 1.600665-1.421867 83.210263 66.674516c3.556493 3.556493 8.534854 5.8687 14.047175 5.8687 10.845844 0 19.735861-8.890017 19.735861-19.913442L866.044999 97.447182C866.044999 86.600121 857.154982 77.710105 846.309138 77.710105L846.309138 77.710105zM668.508808 888.125907l-65.075067-52.273394c-3.555277-3.556493-8.533637-5.689902-14.045958-5.689902-5.33474 0-10.3131 2.133409-13.868377 5.689902l-65.075067 65.252648-65.075067-65.252648c-3.555277-3.556493-8.533637-5.689902-13.868377-5.689902-5.511105 0-10.489465 2.133409-14.045958 5.689902l-65.075067 65.252648-65.075067-65.252648c-3.555277-3.556493-8.534854-5.689902-13.868377-5.689902-5.511105 0-10.489465 2.133409-14.047175 5.689902L194.3154 888.125907 194.3154 236.130953l474.193408 0L668.508808 888.125907 668.508808 888.125907zM688.244669 196.48165 174.578323 196.48165C163.733694 196.48165 154.842462 205.371666 154.842462 216.395092l0 712.801986c0 10.845844 8.890017 19.735861 19.735861 19.735861 5.512321 0 10.490682-2.133409 14.047175-5.867484l83.211479-66.674516 66.674516 66.674516c3.555277 3.555277 8.356056 5.867484 13.868377 5.867484 5.511105 0 10.489465-2.310991 14.047175-5.867484l65.073851-65.073851 64.897485 65.073851c3.556493 3.555277 8.534854 5.867484 14.047175 5.867484 5.512321 0 10.3131-2.133409 14.045958-5.867484l66.498151-66.674516 83.211479 66.674516c3.555277 3.734075 8.533637 5.867484 14.045958 5.867484 10.845844 0 19.737077-8.890017 19.737077-19.735861L707.984178 216.395092C707.98053 205.371666 699.090513 196.48165 688.244669 196.48165L688.244669 196.48165zM629.037086 275.780256l-39.649303 0 0 270.288613 39.649303 0L629.037086 275.780256 629.037086 275.780256zM273.874297 275.780256 234.224994 275.780256l0 270.288613 39.649303 0L273.874297 275.780256 273.874297 275.780256z" p-id="1024"></path><path d="M485.54767 341.096153c-2.891171 3.280391-7.861017 3.718262-11.263039 0.970616-9.70981-7.842773-19.077837-12.102294-31.49029-12.102294-17.23026 0-26.870741 8.177258-26.870741 24.238644 0 36.210792 88.778534 30.664415 88.778534 96.078832 0 29.860433-15.675815 52.526387-45.33799 60.521199-3.573521 0.963318-6.059661 4.197489-6.059661 7.897507l0 19.181223c0 4.522244-3.665961 8.186989-8.188205 8.186989l-12.534084 0c-4.522244 0-8.186989-3.665961-8.186989-8.188205l0-17.499065c0-3.95301-2.826707-7.318543-6.711604-8.047113-15.574861-2.919146-32.068037-9.669672-45.134866-19.463407-3.46527-2.59804-4.317904-7.440174-1.941232-11.059915l10.203632-15.542021c2.537225-3.865436 7.750333-4.831187 11.553737-2.19909 13.671335 9.456817 27.094542 14.830479 41.375249 14.830479 20.440105 0 29.785022-9.051786 29.785022-25.699433 0-39.42307-88.777318-35.918878-88.777318-96.950927 0-29.675554 16.500474-50.720165 43.575555-58.171286 3.573521-0.982779 6.071824-4.196273 6.071824-7.902372l0-19.189737c0-4.522244 3.665961-8.188205 8.186989-8.188205l12.534084 0c4.52346 0 8.188205 3.665961 8.188205 8.188205l0 18.272639c0 3.867869 2.717239 7.155557 6.490235 8.008191 14.787908 3.348504 26.370837 10.650018 36.334856 19.825868 3.251199 2.994557 3.457972 8.065358 0.535177 11.382238L485.54767 341.096153 485.54767 341.096153z" p-id="1025"></path></svg>