<?xml version="1.0" standalone="no"?><!DOCTYPE svg PUBLIC "-//W3C//DTD SVG 1.1//EN" "http://www.w3.org/Graphics/SVG/1.1/DTD/svg11.dtd"><svg t="1483496394196" class="icon" style="" viewBox="0 0 1024 1024" version="1.1" xmlns="http://www.w3.org/2000/svg" p-id="1978" xmlns:xlink="http://www.w3.org/1999/xlink" width="200" height="200"><defs><style type="text/css"></style></defs><path d="M695.466667 915.854222 695.466667 329.159111 915.171556 329.159111 915.171556 913.692444 695.466667 913.692444 695.466667 915.854222ZM108.828444 915.854222 108.828444 109.454222 620.828444 109.454222 620.828444 913.692444 108.828444 913.692444 108.828444 915.854222ZM987.704889 915.854222 987.704889 256.625778 695.466667 256.625778 695.466667 36.920889 36.295111 36.920889 36.295111 913.692444 0 913.692444 0 986.225778 1024 986.225778 1024 913.692444 987.704889 913.692444 987.704889 915.854222ZM403.228444 585.159111 550.4 585.159111 550.4 693.930667 403.228444 693.930667 403.228444 585.159111ZM183.466667 585.159111 330.638222 585.159111 330.638222 693.930667 183.466667 693.930667 183.466667 585.159111ZM768 585.159111 840.533333 585.159111 840.533333 693.930667 768 693.930667 768 585.159111ZM768 403.854222 840.533333 403.854222 840.533333 512.625778 768 512.625778 768 403.854222ZM403.228444 403.854222 550.4 403.854222 550.4 512.625778 403.228444 512.625778 403.228444 403.854222ZM183.466667 403.854222 330.638222 403.854222 330.638222 512.625778 183.466667 512.625778 183.466667 403.854222ZM403.228444 220.387556 550.4 220.387556 550.4 329.159111 403.228444 329.159111 403.228444 220.387556ZM183.466667 220.387556 330.638222 220.387556 330.638222 329.159111 183.466667 329.159111 183.466667 220.387556Z" p-id="1979"></path></svg>