<?xml version="1.0" standalone="no"?><!DOCTYPE svg PUBLIC "-//W3C//DTD SVG 1.1//EN" "http://www.w3.org/Graphics/SVG/1.1/DTD/svg11.dtd"><svg t="1483496478925" class="icon" style="" viewBox="0 0 1024 1024" version="1.1" xmlns="http://www.w3.org/2000/svg" p-id="2639" xmlns:xlink="http://www.w3.org/1999/xlink" width="200" height="200"><defs><style type="text/css"></style></defs><path d="M0 993.28C0 1010.176 13.824 1024 30.72 1024L133.12 1024C150.016 1024 163.84 1010.176 163.84 993.28L163.84 440.32C163.84 423.424 150.016 409.6 133.12 409.6L30.72 409.6C13.824 409.6 0 423.424 0 440.32L0 993.28 0 993.28ZM286.72 993.28C286.72 1010.176 300.544 1024 317.44 1024L419.84 1024C436.736 1024 450.56 1010.176 450.56 993.28L450.56 624.64C450.56 607.744 436.736 593.92 419.84 593.92L317.44 593.92C300.544 593.92 286.72 607.744 286.72 624.64L286.72 993.28 286.72 993.28ZM573.44 993.28C573.44 1010.176 587.264 1024 604.16 1024L706.56 1024C723.456 1024 737.28 1010.176 737.28 993.28L737.28 624.64C737.28 607.744 723.456 593.92 706.56 593.92L604.16 593.92C587.264 593.92 573.44 607.744 573.44 624.64L573.44 993.28 573.44 993.28ZM890.88 409.6C873.984 409.6 860.16 423.424 860.16 440.32L860.16 993.28C860.16 1010.176 873.984 1024 890.88 1024L993.28 1024C1010.176 1024 1024 1010.176 1024 993.28L1024 440.32C1024 423.424 1010.176 409.6 993.28 409.6L890.88 409.6 890.88 409.6ZM512 0C376.270848 0 266.24 110.030848 266.24 245.76 266.24 381.489152 376.270848 491.52 512 491.52 647.729152 491.52 757.76 381.489152 757.76 245.76 757.76 110.030848 647.729152 0 512 0L512 0ZM619.48928 310.771712C615.862272 362.391552 583.68 389.967872 526.336 393.551872L526.336 421.888 495.616 421.888 495.616 392.751104C444.416 386.842624 413.571072 357.654528 403.728384 305.139712L448.823296 292.466688C452.564992 333.789184 475.57632 353.964032 517.824512 353.017856 554.438656 353.017856 572.737536 338.47296 572.737536 309.362688 577.425408 288.724992 556.296192 273.23392 509.360128 262.89152 441.767936 248.809472 409.823232 221.130752 413.587456 179.808256 416.182272 131.330048 442.368 104.429568 495.616 99.05152L495.616 71.68 526.336 71.68 526.336 98.910208C573.44 103.641088 603.121664 130.134016 612.450304 178.399232L567.11168 191.072256C560.535552 156.348416 541.76768 139.450368 510.78144 140.376064 476.987392 141.324288 459.603968 154.458112 458.682368 179.806208 456.790016 196.702208 476.043264 209.862656 516.417536 219.234304 586.827776 233.3184 621.361152 263.839744 619.48928 310.771712L619.48928 310.771712Z" p-id="2640"></path></svg>