<?xml version="1.0" standalone="no"?><!DOCTYPE svg PUBLIC "-//W3C//DTD SVG 1.1//EN" "http://www.w3.org/Graphics/SVG/1.1/DTD/svg11.dtd"><svg width="200.5859375" height="200" viewBox="0 0 200.5859375 200" version="1.1" xmlns="http://www.w3.org/2000/svg" xmlns:xlink="http://www.w3.org/1999/xlink"><defs><style type="text/css"><![CDATA[
@font-face { font-family: ifont; src: url("http://at.alicdn.com/t/font_1442373896_4754455.eot?#iefix") format("embedded-opentype"), url("http://at.alicdn.com/t/font_1442373896_4754455.woff") format("woff"), url("http://at.alicdn.com/t/font_1442373896_4754455.ttf") format("truetype"), url("http://at.alicdn.com/t/font_1442373896_4754455.svg#ifont") format("svg"); }

]]></style></defs><g class="transform-group"><g transform="scale(0.1953125, 0.1953125)"><path d="M1026.052089 853.675338l0 6.156313c0 90.292584-73.87575 164.168334-164.168334 164.168334L164.168334 1023.999984c-90.292584 0-164.168334-73.87575-164.168334-164.168334L0 164.168334c0-90.292584 73.87575-164.168334 164.168334-164.168334l697.71542 0c90.292584 0 164.168334 73.87575 164.168334 164.168334l0 529.442878L1026.052089 853.675338zM277.034064 788.008004c-160.064126 0-207.262522-125.178355-127.230459-194.949897 26.677354-22.573146 73.87575-34.885771 100.553105-36.937875 94.396792-10.260521 182.637272 26.677354 287.294585 77.979959C461.72344 728.496983 369.378752 788.008004 277.034064 788.008004L277.034064 788.008004zM845.466921 642.308607c-41.042084-14.364729-96.448896-34.885771-158.012022-57.458917 36.937875-63.615229 65.667334-137.49098 86.188375-215.470939l-203.158314 0 0-71.823646 248.304605 0 0-41.042084L570.484961 256.513022 570.484961 135.438876l-100.553105 0C451.462919 135.438876 451.462919 153.907813 451.462919 153.907813l0 104.657313L201.106209 258.565126l0 41.042084L451.462919 299.60721 451.462919 369.378752 244.200397 369.378752l0 41.042084 402.212419 0c-14.364729 51.302604-34.885771 98.501-57.458917 141.595188-129.282563-43.094188-268.825647-77.979959-357.066127-55.406813-55.406813 14.364729-92.344688 38.989979-112.86573 63.615229C22.573146 677.194378 92.344688 855.727442 295.503001 855.727442c121.074146 0 238.044085-67.719438 328.336668-178.533063C759.278546 742.861712 1026.052089 853.675338 1026.052089 853.675338l0-158.012022C1026.052089 695.663316 993.218422 691.559108 845.466921 642.308607z" fill="#272636"></path></g></g></svg>