<?xml version="1.0" standalone="no"?><!DOCTYPE svg PUBLIC "-//W3C//DTD SVG 1.1//EN" "http://www.w3.org/Graphics/SVG/1.1/DTD/svg11.dtd"><svg class="icon" width="200px" height="200.00px" viewBox="0 0 1024 1024" version="1.1" xmlns="http://www.w3.org/2000/svg"><path d="M840.277333 319.573333c-91.114667-54.72-207.701333-84.906667-328.277333-84.906667s-237.141333 30.186667-328.277333 84.906667c-89.664 53.930667-141.056 124.074667-141.056 192.448 0 68.373333 51.370667 138.496 140.949333 192.426667 91.136 54.741333 207.722667 84.885333 328.298667 84.885333 120.512 0 237.12-30.144 328.362667-84.885333 89.664-53.930667 141.056-124.053333 141.056-192.426667C981.333333 443.584 929.92 373.44 840.277333 319.573333zM818.752 671.381333c-84.842667 51.008-193.770667 79.061333-306.752 79.061333s-221.909333-28.053333-306.752-79.061333c-76.394667-45.888-122.005333-105.450667-122.005333-159.36s45.589333-113.450667 121.92-159.381333c84.842667-51.008 193.770667-79.061333 306.752-79.061333 112.917333 0 221.888 28.053333 306.837333 79.061333 76.394667 45.888 122.005333 105.450667 122.005333 159.381333C940.757333 565.909333 895.146667 625.472 818.752 671.381333z" fill="#1296db" /><path d="M512 362.666667c-82.346667 0-149.333333 67.008-149.333333 149.333333s66.986667 149.333333 149.333333 149.333333c82.325333 0 149.333333-67.008 149.333333-149.333333S594.325333 362.666667 512 362.666667zM512 626.24c-62.997333 0-114.218667-51.242667-114.218667-114.24s51.221333-114.24 114.218667-114.24 114.218667 51.242667 114.218667 114.24S574.997333 626.24 512 626.24z" fill="#1296db" /><path d="M465.301333 450.794667c-19.370667 16.725333-30.122667 40.96-29.504 66.474667 0.170667 8.021333 6.784 14.464 14.784 14.464 0.085333 0 0.170667 0 0.448-0.106667 8.192-0.170667 14.634667-6.933333 14.442667-15.146667-0.448-16.618667 6.613333-32.469333 19.2-43.306667 6.165333-5.290667 6.869333-14.698667 1.493333-20.885333C480.896 446.122667 471.466667 445.418667 465.301333 450.794667z" fill="#1296db" /></svg>